<svg xmlns="http://www.w3.org/2000/svg" width="1099.972" height="1098.71" viewBox="0 0 1099.972 1098.71">
  <g id="ASAN_Logo" data-name="ASAN Logo" transform="translate(-870.91 -258.113)">
    <path id="Shape" d="M54.38,47.921C67.192,40.813,80.466,34.553,93.643,28.15c1.242,1.114,2.468,2.241,3.695,3.383C83.077,37.146,68.87,42.916,54.38,47.921Z" transform="translate(941.055 949.229)" fill="#fff" fill-rule="evenodd"/>
    <path id="Shape-2" data-name="Shape" d="M162.53,32.234c6.728-1.3,13.133-4.047,19.976-4.793,4.019,4.472,5.7,10.407,8.294,15.712q56.544,115.591,113,231.2c3.232,6.628,6.15,13.44,10.144,19.674-3.794-13.624-9.72-26.5-14.516-39.773-16.281-41.8-32.292-83.7-48.686-125.45-4.022-11.2-9.071-22.018-12.359-33.47,10.553,2.668,20.712,6.7,31.037,10.129,42.52,14.695,85.025,29.42,127.673,43.734,4.091.973,5.585,5.177,7.223,8.562,10.172,24.059,21.231,47.725,32.151,71.447,2.228,5.092,4.824,10.65,3.158,16.317-2.749,10.157-6.615,19.986-10.085,29.916-11.217,31.773-22.007,63.692-33.237,95.452-2.908,8.023-4.952,16.585-10.031,23.594-5.9,7.9-13.867,14.429-23.277,17.615-11.214,4.344-23.967,3.3-35-1.1-42.972-17.081-85.674-34.809-128.506-52.227-3.738-1.607-7.87-3.058-10.4-6.431-2.693-3.667-4.331-7.967-6.25-12.042C147.35,260.712,111.036,181.492,75.29,102.02c-2.864-7.052-8.9-14.442-5.657-22.383,4.6-11.4,9.508-22.664,14.064-34.06,1.99-4.569,3.4-9.477,6.265-13.6,14.812,1.9,29.681,5.374,44.72,4.035,9.326-.917,18.721-1.538,27.848-3.782Z" transform="translate(1292.625 931.815)" fill="#fff" fill-rule="evenodd"/>
    <path id="Shape-3" data-name="Shape" d="M86.028,27.147c18.678,7.093,36.567,16.077,54.849,24.087-15.758-4.4-31.3-9.561-46.68-15.132,1.932-.381,3.863-.761,5.81-1.114a88.882,88.882,0,0,1-13.979-7.842Z" transform="translate(1718.047 924.619)" fill="#fff" fill-rule="evenodd"/>
    <path id="Shape-4" data-name="Shape" d="M162.942,47.115c17.436-7.969,35.409-14.866,53.07-22.355a164.5,164.5,0,0,0,69,62.184C254.95,175.682,224.153,264.2,193.793,352.837c-2.509,8.054-5.685,15.893-7.716,24.1C216.661,309.694,245.8,241.771,276.125,174.4c24.815,50.377,49.334,100.9,74.094,151.287a7.043,7.043,0,0,1,.225,6.39q-15.576,41.42-31.306,82.815c-2.425,8.251-11.511,10.65-18.338,14.12-40.024,19.151-79.864,38.7-119.816,57.979-7.052,3.723-15.137,4.019-22.925,3.751-18.2.521-34.832-12.426-41.575-28.883-18.141-42.563-35.79-85.326-53.919-127.89-1.776-4.219-3.851-8.746-2.708-13.414,1.566-6.416,4.487-12.395,6.715-18.6,20.5-54.637,41.25-109.176,61.791-163.8,11.654-30.294,22.6-60.884,34.579-91.037Z" transform="translate(1067.496 866.007)" fill="#fff" fill-rule="evenodd"/>
    <path id="Shape-5" data-name="Shape" d="M372.536,23.075c5.729-3.383,12.02-.084,17.62,1.819,25.056,9.449,49.968,19.266,75.136,28.418,5.389,1.651,7.844,7.067,10.172,11.708,19.836,41.605,40.08,83.014,60.153,124.5a62.32,62.32,0,0,1,5.716,21.65c-.536,12.875-5.448,25.95-15.1,34.765-8.422,7.826-19.23,12.242-29.8,16.332q-54.513,22.763-108.951,45.653c-4.615,1.875-9.043,4.625-14.066,5.19-6.756-.8-12.837-4.132-19.158-6.416-47.26-16.9-93.927-35.386-140.918-53.017-13.5-5.823-27.721-9.745-41.278-15.415-23.686-9.421-47.725-17.912-71.511-27.036-5.332-1.8-6.912-7.63-8.958-12.226-5.642-14.316-12.216-28.265-17.324-42.778,8.943-6.36,18.1-12.523,25.945-20.252,11-10.788,21.724-22.255,28.947-36.007a131.144,131.144,0,0,1,7.885-12.607c14.206,4.415,28,10.054,42.239,14.385,32.629,11.112,65.092,22.736,97.849,33.523,35.057,12.566,70.537,23.99,105.553,36.684,15.377,5.57,30.922,10.732,46.68,15.132C411.093,179.074,393.2,170.09,374.526,163c-26.875-11.764-53.469-24.2-80.6-35.371-14.4-6.756-28.991-13.047-43.534-19.465-8.593-3.695-17.24-7.333-25.184-12.283,27.849-15.19,56.783-28.306,85.38-42.042,20.37-10.79,41.419-20.283,61.944-30.761Z" transform="translate(1429.549 788.77)" fill="#fff" fill-rule="evenodd"/>
    <path id="Shape-6" data-name="Shape" d="M376.841,20.016c2.961-1.819,6.25-.324,9.127.874,15.7,6.84,31.63,13.144,47.456,19.659-7.024,30.677-5.9,63.367,4.98,93.028-50.714,25.3-101.884,49.687-152.67,74.82-27.665,13.3-55.089,27.092-82.825,40.266-13.177,6.4-26.451,12.663-39.262,19.772,14.49-5.006,28.7-10.775,42.957-16.389,54.455-21.07,108.826-42.311,163.381-63.112-17.579,52.917-36.273,105.466-54.046,158.311-.677,3.245-3.145,5.417-6.15,6.544-26.51,12.017-53.088,23.893-79.539,36.02-4.471,2.343-9.636,1.778-14.178.015-43.9-15.443-87.945-30.465-131.863-45.852-9.127-3.13-17.845-8.192-23.783-15.936-10.721-13.044-13.361-31.86-7.308-47.528Q79.866,214.819,106.6,149.1c1.776-4.344,4.16-8.984,8.774-10.816Q246.084,79.1,376.841,20.016Z" transform="translate(831.787 728.716)" fill="#fff" fill-rule="evenodd"/>
    <path id="Shape-7" data-name="Shape" d="M167.673,17.725C192.7,15.045,218.686,20.589,240,34.086a112.513,112.513,0,0,1,45.344,53.367c9.436,22.651,10.862,48.348,4.837,72.055-6.291,25.176-21.964,47.712-42.914,62.931-35.665,26.571-87.381,29.279-125.289,5.8a111.824,111.824,0,0,1-44.367-48.757A113.651,113.651,0,0,1,167.673,17.725Z" transform="translate(1240.476 677.173)" fill="#fff" fill-rule="evenodd"/>
    <path id="Shape-8" data-name="Shape" d="M205.59,13.411c5.092-2.031,10.652-4.484,16.225-2.834,9.592,2.609,18.635,6.868,27.989,10.226,76.8,28.924,153.487,58.147,230.374,86.877,4.374,1.663,9.015,2.905,12.952,5.542,2.974,2.553,3.963,6.587,5.514,10.057,5.389,14.539,12.8,28.3,17.071,43.253-7.492,5.276-15.293,10.226-21.979,16.544-10.341,9.929-20.681,20.1-28.342,32.31-4.119,5.982-6.646,12.919-11.089,18.66-5.177.3-9.973-2.016-14.771-3.582Q379.141,209.478,318.619,188.9c-15.545-5.854-31.671-10.029-47.1-16.22-19.68-6.684-39.275-13.624-58.983-20.211-15.068-5.261-30.064-10.775-45.428-15.147,10.06,5.161,20.372,9.83,30.756,14.258,44.72,19.774,89.371,39.661,134.175,59.236,11.314,5.289,23.065,9.648,34.167,15.4-21.2,11.662-43.465,21.295-65.036,32.254-27.677,13.018-54.92,26.98-82.429,40.351-3.866,2.044-8.381,2.765-12.456.889-22.728-8.8-45.568-17.334-68.365-25.937-7.941-3.018-17.776-5.161-21.583-13.736C97.949,221.609,79.215,183.331,60.636,145,56.178,135.759,51,126.51,49.844,116.143A47.473,47.473,0,0,1,64.855,75.877C72.6,68.656,82.8,65.115,92.392,61.083c14.728-5.754,29.09-12.382,43.734-18.336,23.065-10,46.47-19.21,69.464-29.336Z" transform="translate(821.404 504.487)" fill="#fff" fill-rule="evenodd"/>
    <path id="Shape-9" data-name="Shape" d="M284.83,10.71c4.683-2.454,10.044-1.283,14.771.381q62.868,21.917,125.823,43.637c8.268,2.821,16.55,6.219,23.333,11.846,14.828,12.778,20.4,35.062,12.9,53.229-17.367,43.578-35.565,86.834-53,130.4-2.116,5.488-5.81,10.578-11.411,12.878-23.742,11.227-47.937,21.494-71.807,32.437-61.776,28.321-123.863,55.95-185.725,84.072-4.937,2.284-10.256.253-14.827-1.847-14.135-6.291-28.694-11.536-42.814-17.855,1.607-12.257,4.471-24.4,3.963-36.837.649-19.169-3.345-38.082-9.1-56.259q75.144-37.043,150.554-73.55c40.885-20.324,82.232-39.7,122.82-60.6-24.506,8.376-48.346,18.586-72.612,27.585-33.786,13.315-67.8,26.062-101.6,39.334-10.113,3.907-20.088,8.238-30.485,11.368,4.022-14.922,9.536-29.376,14.6-43.946,12.525-37.614,25.986-74.9,38.427-112.533.961-2.849,2.06-6.135,5.236-7.165,27-12.155,54.087-24.144,80.962-36.569Z" transform="translate(1494.642 486.528)" fill="#fff" fill-rule="evenodd"/>
    <path id="Shape-10" data-name="Shape" d="M107.456,31.174C114.283,12.063,134.471-.912,154.672.541c9.975.437,19.059,4.95,28.145,8.645q54.616,22.255,109.207,44.539c5.726,2.553,12.329,3.921,16.971,8.392,4.147,5.246,6.038,11.847,8.943,17.8q53.9,119.019,107.709,238.053c1.722,4.175,4.219,8.138,5.008,12.638-.562,3.2-2.016,6.148-3.214,9.14-6.306,14.554-11.838,29.42-18.468,43.833a161.114,161.114,0,0,0-92.46,4.921c-17.14-34.132-33.547-68.641-50.446-102.9q-38.407-78.7-76.859-157.368a123.335,123.335,0,0,0-6.6-12.171,117.542,117.542,0,0,0,5.164,15.161c23.346,59.884,46.358,119.907,69.7,179.792,1.086,2.933,2.031,5.895,2.964,8.884-52.2-17.191-103.974-35.7-156.073-53.211-3.37-.933-6.756-2.6-7.87-6.178q-17.757-39.37-35.649-78.669a17.6,17.6,0,0,1-.8-14.639C75.981,121.9,91.5,76.46,107.456,31.174Z" transform="translate(1049.822 268.671)" fill="#fff" fill-rule="evenodd"/>
    <path id="Shape-11" data-name="Shape" d="M254.914,0h13.923c7.944,2.44,15.844,5.641,22.362,10.916,7.249,5.811,11.933,14.1,15.517,22.523q26.431,63.148,53.1,126.184a20,20,0,0,1,.621,15.655q-47,124.416-93.929,248.857c-2.241,5.81-3.907,11.861-6.784,17.39-2.527,4.793-8.184,6.291-12.753,8.376-14,5.276-27.568,11.6-41.575,16.841-13.2-21.141-30.713-39.83-52.156-52.733-5.292-3.245-11.245-5.5-15.885-9.733.958-8.813,5.192-16.854,7.773-25.258Q178.1,282.994,211.14,186.985c8.138-24.3,17.04-48.361,24.588-72.859-8.79,17.9-16.378,36.359-24.5,54.552-21.91,49.236-43.269,98.738-65.557,147.791-7.972-13.44-14.107-27.854-21.118-41.817-17.227-34.934-34.07-70.066-51.45-104.916a15.867,15.867,0,0,1-.552-14.216c9.919-25.88,19.652-51.859,29.4-77.809,2.116-6.445,8.026-10.253,13.895-12.933,35.3-16.656,70.381-33.806,105.438-50.956C232.23,8.631,243.023,2.75,254.914,0Z" transform="translate(1352.333 258.113)" fill="#fff" fill-rule="evenodd"/>
  </g>
</svg>
